<svg id="Calque_2" data-name="Calque 2" xmlns="http://www.w3.org/2000/svg" xmlns:xlink="http://www.w3.org/1999/xlink" viewBox="0 0 973.2 810.3"><defs><style>.cls-1{fill:url(#Dégradé_sans_nom_19);}.cls-2{fill:url(#Dégradé_sans_nom_19-2);}.cls-3{fill:url(#Dégradé_sans_nom_19-3);}.cls-4{fill:url(#Dégradé_sans_nom_19-4);}</style><linearGradient id="Dégradé_sans_nom_19" x1="-53.75" y1="14.5" x2="1079.11" y2="824.12" gradientUnits="userSpaceOnUse"><stop offset="0.14" stop-color="#e58a0b"/><stop offset="0.46" stop-color="#ae6ca6"/><stop offset="0.7" stop-color="#8f5bfe"/></linearGradient><linearGradient id="Dégradé_sans_nom_19-2" x1="-368.58" y1="330.76" x2="774.94" y2="1148" xlink:href="#Dégradé_sans_nom_19"/><linearGradient id="Dégradé_sans_nom_19-3" x1="-175.31" y1="60.33" x2="968.22" y2="877.56" xlink:href="#Dégradé_sans_nom_19"/><linearGradient id="Dégradé_sans_nom_19-4" x1="-207.61" y1="285.92" x2="893.82" y2="1073.08" xlink:href="#Dégradé_sans_nom_19"/></defs><path class="cls-1" d="M537.3,610.3H879.4a15.2,15.2,0,0,0,14.9-11.7l90.9-390.2a15.3,15.3,0,0,0-14.8-18.7H177.6a15.1,15.1,0,0,1-14.1-9.5l-30.3-75.8a15.2,15.2,0,0,0-14.1-9.5H27.6a15.2,15.2,0,0,0-15.2,15.2v15.8a15.3,15.3,0,0,0,9.3,14l5.4,2.3a15.2,15.2,0,0,0,16-2.7l9.5-8.5a15.7,15.7,0,0,1,10.2-3.8h37.9a15.2,15.2,0,0,1,14.6,11L253.1,612.5a15.5,15.5,0,0,1-.6,10.2L201.7,742.6A15.2,15.2,0,0,0,220.5,763h0a15.3,15.3,0,0,0,9.2-8.6l54.1-128.8a15.3,15.3,0,0,1,13.7-9.3Z" transform="translate(-12.4 -94.9)"/><circle class="cls-2" cx="219.2" cy="750.8" r="59.5"/><circle class="cls-3" cx="790.8" cy="750.8" r="59.5"/><path class="cls-4" d="M307.4,807.4l3.4,7.9a15.1,15.1,0,0,0,14,9.3H709.5a15.3,15.3,0,0,0,13.5-8.1l4.2-8a15.2,15.2,0,0,0-13.5-22.3H321.4A15.2,15.2,0,0,0,307.4,807.4Z" transform="translate(-12.4 -94.9)"/></svg>